<?xml version="1.0" standalone="no"?>
<!DOCTYPE svg PUBLIC "-//W3C//DTD SVG 20010904//EN"
 "http://www.w3.org/TR/2001/REC-SVG-20010904/DTD/svg10.dtd">
<svg version="1.0" xmlns="http://www.w3.org/2000/svg"
 width="2560.000000pt" height="922.000000pt" viewBox="0 0 2560.000000 922.000000"
 preserveAspectRatio="xMidYMid meet">
<metadata>
Created by potrace 1.16, written by Peter Selinger 2001-2019
</metadata>
<g transform="translate(0.000000,922.000000) scale(0.100000,-0.100000)"
fill="#000000" stroke="none">
<path d="M11885 9213 c-1574 -45 -2978 -172 -4345 -394 -2735 -443 -4976
-1228 -6275 -2199 -232 -173 -396 -318 -590 -521 -358 -372 -585 -790 -655
-1204 -19 -114 -21 -155 -17 -330 4 -153 10 -224 26 -300 127 -585 536 -1136
1226 -1654 1844 -1384 5499 -2349 9710 -2566 1055 -54 2333 -60 3370 -15 4345
189 8113 1160 10010 2580 599 449 1002 945 1164 1435 74 222 85 298 85 565 1
209 -2 247 -22 340 -105 477 -364 893 -827 1329 -957 901 -2766 1698 -5040
2220 -1788 411 -3722 645 -5875 711 -279 8 -1679 11 -1945 3z m2170 -323 c675
-25 1180 -54 1730 -101 2635 -222 4966 -733 6680 -1464 1702 -726 2662 -1629
2724 -2560 34 -525 -184 -1011 -674 -1500 -1446 -1444 -5058 -2513 -9420
-2790 -1212 -77 -2657 -88 -3900 -30 -4595 214 -8476 1312 -9985 2825 -229
229 -372 419 -488 648 -270 530 -249 1068 63 1597 172 293 493 631 870 916
862 652 2266 1242 3970 1668 1881 470 4015 738 6375 801 386 10 1686 4 2055
-10z"/>
<path d="M12135 8533 c-82 -1 -343 -10 -580 -18 -3907 -140 -7342 -901 -9203
-2040 -596 -364 -1033 -790 -1233 -1200 -107 -220 -144 -381 -144 -620 1 -240
33 -379 141 -605 124 -259 310 -492 592 -741 1351 -1192 4439 -2100 8212
-2414 993 -82 1835 -115 2945 -115 887 0 1496 17 2260 65 4534 285 8170 1412
9287 2878 406 532 456 1104 146 1649 -96 169 -206 307 -387 489 -169 169 -295
275 -494 417 -1015 723 -2743 1342 -4862 1741 -2022 381 -4286 555 -6680 514z
m-2060 -693 c554 -32 924 -79 2025 -260 1330 -218 1839 -268 2663 -257 618 8
1052 53 1588 167 172 36 215 38 259 8 62 -42 75 -71 75 -157 0 -70 -4 -86 -39
-157 -77 -155 -256 -299 -551 -444 -391 -191 -751 -259 -1323 -247 -565 11
-942 83 -2090 396 -450 123 -836 221 -872 221 -5 0 -10 -24 -12 -52 l-3 -53
-191 -145 c-603 -456 -932 -787 -1200 -1206 -53 -84 -71 -120 -62 -124 20 -10
860 34 893 46 9 4 14 47 18 147 4 121 9 154 32 221 56 161 173 294 324 369
l84 42 116 0 c107 0 121 -2 173 -28 82 -40 152 -120 178 -204 85 -275 -105
-597 -422 -719 -48 -18 -68 -31 -68 -43 0 -23 47 -66 153 -140 76 -54 87 -66
87 -92 0 -67 -63 -129 -133 -129 -68 0 -229 101 -352 222 l-80 78 -56 0 c-118
0 -786 -60 -1058 -95 -63 -8 -124 -21 -135 -29 -12 -7 -52 -65 -90 -127 -717
-1179 -1162 -1802 -1609 -2250 -392 -394 -789 -643 -1187 -746 -260 -67 -609
-85 -844 -44 -582 102 -992 489 -1103 1039 -27 135 -25 453 5 589 75 346 265
657 534 876 178 145 386 254 576 303 228 59 388 -4 399 -159 6 -77 -16 -104
-134 -170 -289 -163 -511 -382 -609 -603 -163 -369 -6 -791 351 -941 112 -47
172 -57 345 -58 180 0 256 12 423 66 115 37 324 139 442 216 315 206 765 656
1204 1203 172 215 511 672 511 689 0 28 -252 -4 -400 -51 -116 -37 -246 -101
-363 -178 -48 -33 -104 -61 -125 -65 -86 -14 -162 45 -162 127 0 82 48 141
176 216 282 163 480 222 1114 329 l105 18 235 312 c334 443 429 552 681 779
314 284 491 417 719 540 186 100 176 93 154 114 -11 10 -55 24 -109 34 -49 9
-223 41 -385 71 -580 107 -896 144 -1272 152 -459 10 -759 -30 -1128 -149
-272 -87 -487 -214 -661 -387 -157 -156 -238 -294 -273 -463 -20 -95 -20 -143
-1 -232 32 -150 133 -253 282 -286 76 -18 218 -13 308 9 102 26 292 121 415
209 120 85 296 260 380 379 71 100 100 123 153 123 74 0 113 -62 104 -166 -4
-57 -16 -88 -85 -227 -256 -517 -627 -873 -1057 -1016 -258 -86 -492 -92 -710
-20 -156 52 -283 138 -380 258 -248 307 -270 749 -58 1177 277 558 1024 1001
1911 1133 112 17 233 29 462 44 111 8 581 6 735 -3z m10466 -1756 c10 -13 9
-21 -6 -47 -10 -18 -266 -412 -568 -877 -1186 -1821 -1516 -2348 -1567 -2496
-54 -155 15 -260 170 -257 209 5 466 193 1046 765 225 222 286 278 307 278 19
0 52 -22 112 -76 92 -82 106 -100 96 -126 -3 -9 -55 -74 -116 -144 -355 -414
-707 -746 -1005 -945 -562 -378 -1056 -385 -1239 -19 -22 44 -43 106 -50 146
-19 110 -21 114 -36 114 -9 0 -57 -36 -109 -81 -142 -124 -258 -203 -401 -274
-267 -133 -497 -162 -722 -94 -251 76 -441 282 -513 555 -34 129 -46 286 -32
418 21 197 18 201 -87 132 -38 -26 -112 -66 -163 -90 -402 -190 -707 -178
-918 35 -105 105 -156 220 -183 404 -7 54 -17 90 -24 90 -13 0 -172 -240 -623
-940 -166 -258 -317 -491 -334 -517 -18 -29 -42 -52 -60 -58 -17 -6 -158 -10
-352 -10 -280 0 -325 2 -338 16 -9 8 -16 21 -16 28 0 19 86 159 347 566 522
816 802 1282 867 1444 29 71 35 164 13 205 -68 134 -289 59 -592 -201 -254
-218 -620 -640 -930 -1073 -146 -204 -239 -318 -375 -459 -135 -139 -231 -221
-362 -309 -424 -283 -872 -340 -1253 -158 -226 107 -389 293 -471 535 -26 75
-39 96 -61 96 -8 0 -52 -40 -99 -89 -144 -151 -362 -321 -413 -321 -33 0 -80
47 -150 149 -33 48 -51 85 -51 104 0 32 -1 32 187 200 266 238 324 317 448
607 296 693 650 1088 1185 1326 214 95 445 154 601 154 82 0 119 -11 151 -47
22 -24 88 -200 88 -234 0 -33 -9 -41 -95 -74 -228 -88 -493 -246 -662 -394
-385 -338 -578 -840 -452 -1177 51 -134 161 -243 287 -281 69 -21 205 -23 282
-4 206 52 441 217 594 419 288 380 385 900 261 1400 -22 87 -24 109 -15 138
15 45 70 90 193 158 86 47 110 56 153 56 68 0 109 -28 157 -110 78 -135 128
-304 147 -503 13 -128 17 -147 34 -147 7 0 94 87 192 193 421 453 609 597 904
692 112 36 283 46 380 21 204 -52 309 -210 328 -493 4 -68 11 -108 19 -110 13
-5 19 2 112 118 144 182 362 333 566 395 76 23 110 27 215 28 106 1 135 -2
191 -22 169 -58 289 -188 334 -359 73 -279 -143 -617 -422 -662 -171 -27 -331
53 -399 202 -25 55 -29 74 -29 161 0 138 -21 140 -118 14 -165 -216 -210 -456
-121 -644 29 -62 98 -128 162 -157 72 -32 206 -35 308 -8 223 61 466 230 942
653 481 428 718 590 1011 692 363 126 739 72 956 -140 65 -63 120 -154 140
-231 22 -82 37 -102 60 -83 23 19 1077 1609 1178 1777 21 34 43 64 50 66 6 3
177 6 378 6 321 1 368 -1 380 -15z"/>
<path d="M11734 6106 c-66 -29 -140 -123 -174 -220 -25 -75 -28 -197 -4 -221
18 -18 35 -15 112 22 151 72 275 270 232 373 -23 55 -98 75 -166 46z"/>
<path d="M17663 4261 c-231 -80 -512 -333 -727 -655 -263 -393 -340 -834 -177
-1009 43 -47 98 -70 182 -75 102 -6 166 9 284 68 218 109 458 330 630 580 105
152 225 355 225 380 0 8 -16 28 -35 43 -19 15 -35 36 -35 46 0 10 13 47 29 82
79 175 96 319 49 420 -64 139 -234 187 -425 120z"/>
</g>
</svg>
